<?xml version="1.0" standalone="no"?>
<!DOCTYPE svg PUBLIC "-//W3C//DTD SVG 20010904//EN"
 "http://www.w3.org/TR/2001/REC-SVG-20010904/DTD/svg10.dtd">
<svg version="1.0" xmlns="http://www.w3.org/2000/svg"
 width="800.000000pt" height="800.000000pt" viewBox="0 0 800.000000 800.000000"
 preserveAspectRatio="xMidYMid meet">
<metadata>
Created by potrace 1.11, written by Peter Selinger 2001-2013
</metadata>
<g transform="translate(0.000000,800.000000) scale(0.100000,-0.100000)"
fill="#000000" stroke="none">
<path d="M3490 7870 c14 -4 50 -9 80 -10 30 -1 64 -5 75 -9 21 -9 26 -8 -160
-32 -44 -6 -113 -15 -153 -21 -40 -6 -75 -8 -78 -5 -11 10 78 49 145 63 l66
14 -63 -4 c-49 -3 -84 -14 -150 -46 -48 -23 -116 -51 -150 -61 -36 -10 -82
-33 -105 -51 -23 -19 -55 -42 -72 -52 -16 -10 -55 -44 -85 -75 -30 -32 -63
-63 -73 -70 -15 -12 -17 -12 -10 5 6 17 5 17 -10 5 -10 -8 -15 -16 -12 -19 7
-8 -26 -42 -41 -42 -11 0 -119 -119 -170 -187 -77 -104 -145 -274 -196 -487
-14 -60 -6 -77 17 -36 l20 35 3 -29 c2 -16 -2 -74 -8 -130 -24 -215 -24 -218
-6 -228 13 -7 15 -18 10 -56 -4 -31 0 -67 10 -102 10 -37 13 -66 7 -90 -8 -38
4 -200 16 -209 5 -3 9 -40 11 -81 1 -41 4 -91 6 -110 2 -19 4 -50 5 -67 0 -19
6 -33 14 -33 9 0 12 43 14 178 1 97 6 197 12 222 59 262 89 365 116 406 7 12
25 48 38 80 43 107 151 255 239 329 26 22 50 50 54 63 3 12 12 22 20 22 8 0
14 7 14 15 0 8 9 15 20 15 11 0 20 6 20 14 0 20 52 36 76 23 17 -9 18 -9 5 7
-12 14 -12 19 5 31 10 8 27 13 37 11 10 -3 21 2 24 10 3 8 9 11 14 8 5 -3 9 0
9 6 0 7 8 9 19 5 11 -3 26 1 35 10 10 10 24 14 36 10 16 -5 20 -2 20 14 0 27
20 27 27 0 4 -12 11 -18 20 -15 8 3 23 6 34 6 12 0 19 7 19 20 0 25 16 26 22
2 5 -17 12 -19 60 -13 7 1 -1 41 -12 56 -4 6 -10 24 -13 40 -4 20 3 11 22 -28
34 -68 36 -71 49 -63 13 8 -9 80 -48 165 -33 71 -37 90 -15 71 8 -7 15 -17 15
-22 0 -15 92 -161 110 -175 12 -9 16 -8 23 9 4 12 3 26 -4 35 -7 7 -9 17 -5
21 4 4 14 -2 22 -12 12 -17 14 -18 14 -3 0 9 -4 17 -10 17 -5 0 -10 4 -10 10
0 5 -13 32 -30 60 -47 79 -19 58 37 -27 47 -73 52 -78 87 -80 21 -1 45 -8 54
-15 14 -11 15 -11 9 6 -12 31 -28 108 -24 113 2 2 14 -23 25 -54 12 -32 28
-67 36 -78 14 -19 15 -17 16 29 0 50 -16 121 -33 144 -5 7 -8 15 -5 18 6 5 42
-45 44 -61 0 -5 6 -23 13 -40 6 -16 14 -36 16 -42 4 -13 35 -19 35 -7 0 3 -15
42 -34 87 -18 45 -37 93 -41 106 -12 40 13 15 41 -41 14 -27 28 -48 30 -45 3
3 1 14 -5 25 -15 27 -14 43 2 40 6 -2 15 -16 19 -33 12 -53 38 -119 58 -145
l19 -25 -3 30 c-2 17 -13 48 -25 68 -30 54 -26 57 10 8 17 -24 36 -40 43 -38
7 3 19 1 27 -5 12 -8 12 -10 0 -15 -8 -3 1 -11 24 -19 20 -7 43 -10 51 -7 14
5 17 70 4 88 -10 14 -30 75 -24 75 2 0 20 -24 39 -54 39 -61 65 -85 41 -38 -9
17 -16 35 -16 39 1 13 40 -38 40 -52 0 -7 7 -18 15 -25 22 -18 19 -10 -26 80
-45 91 -47 113 -4 48 27 -41 115 -134 115 -121 0 3 -14 28 -31 55 -16 28 -28
55 -26 61 3 10 71 -71 79 -95 2 -6 13 -8 27 -3 22 7 23 11 17 60 -7 62 -15 87
-26 80 -4 -2 -5 7 -2 20 2 14 -1 32 -8 40 -9 11 -9 15 -1 15 6 0 14 -8 18 -17
3 -10 16 -41 29 -70 26 -57 29 -67 14 -58 -5 3 -10 1 -10 -5 0 -6 7 -13 15
-16 8 -4 25 -24 37 -45 27 -48 57 -56 33 -9 -20 38 -13 38 22 0 24 -26 38 -31
86 -35 44 -4 56 -2 51 8 -5 7 0 6 10 -3 23 -18 56 -23 56 -8 0 6 14 -1 30 -17
34 -32 38 -28 13 13 l-17 27 26 -27 c14 -14 40 -34 59 -43 19 -10 41 -23 49
-30 8 -6 23 -15 33 -18 29 -11 10 11 -35 39 -22 14 -55 41 -74 59 -18 18 -35
30 -39 27 -3 -4 -3 0 0 9 6 16 -60 87 -71 76 -3 -3 6 -18 22 -32 15 -14 20
-23 11 -19 -13 5 -16 2 -11 -12 4 -14 0 -13 -16 6 -54 63 -82 89 -92 87 -7 -1
-18 10 -25 25 -14 27 -130 138 -145 138 -13 0 -9 17 6 23 7 3 31 -6 52 -19
l39 -25 -32 29 c-44 38 -41 46 7 21 22 -12 46 -19 54 -16 7 3 37 -16 66 -44
29 -27 57 -49 63 -49 13 0 113 -75 149 -112 17 -17 33 -25 43 -22 14 6 12 11
-11 35 -15 16 -34 29 -41 29 -7 0 -18 11 -23 25 -6 15 -41 45 -90 76 -44 28
-80 53 -80 55 0 14 81 -33 129 -74 31 -27 92 -73 136 -103 101 -68 231 -191
238 -225 4 -21 -7 -14 -67 42 -39 37 -84 80 -99 96 -27 27 -47 36 -47 20 0 -4
5 -13 12 -20 15 -15 3 -16 -22 -2 -16 9 -18 8 -13 -7 5 -14 -1 -12 -38 8 l-45
25 -1 -32 c-1 -21 6 -39 21 -52 23 -23 196 -124 196 -116 0 3 -5 15 -11 26
-11 21 -11 21 19 0 16 -12 35 -22 40 -22 9 0 24 -24 26 -42 2 -15 16 -20 16
-6 0 9 8 15 18 14 10 0 16 5 14 14 -2 11 1 11 11 -2 8 -10 18 -18 24 -18 5 0
29 -20 54 -45 24 -24 50 -45 57 -45 7 0 15 -7 18 -15 4 -8 12 -15 20 -15 7 0
19 -8 26 -17 20 -27 77 -65 88 -58 5 3 12 -1 17 -8 9 -15 46 -37 62 -37 6 0
11 7 11 15 0 18 1 18 34 5 17 -6 26 -17 26 -31 0 -21 1 -21 19 -5 16 14 20 15
30 2 7 -8 25 -16 39 -18 l27 -3 -22 -20 c-44 -38 -18 -65 62 -65 25 0 44 -4
41 -9 -3 -5 5 -20 19 -32 13 -13 25 -30 25 -36 0 -7 9 -22 21 -34 14 -14 19
-28 15 -45 -8 -31 -41 -32 -73 -2 -19 18 -23 19 -23 5 0 -17 15 -30 40 -34 7
-1 21 -11 30 -23 9 -12 25 -20 35 -18 10 1 20 -3 23 -11 3 -10 -2 -13 -21 -9
-15 3 -24 1 -21 -3 3 -5 0 -9 -6 -9 -7 0 -10 -6 -7 -12 2 -7 11 -12 20 -10 8
1 18 -2 22 -8 4 -7 -3 -9 -19 -6 -43 8 -31 -19 44 -95 39 -39 70 -78 70 -86 0
-14 -3 -13 -21 3 l-21 19 7 -32 c6 -29 4 -33 -14 -33 -21 0 -21 -1 -5 -25 9
-14 24 -24 33 -23 8 2 16 -1 17 -7 5 -45 18 -96 25 -101 5 -3 9 -14 9 -25 0
-11 9 -30 21 -42 17 -18 79 -131 79 -144 0 -1 -15 6 -32 17 -37 22 -48 25 -48
10 0 -5 6 -10 14 -10 8 0 21 -9 29 -20 12 -17 16 -18 33 -6 12 9 20 28 21 53
1 21 3 45 4 53 4 32 -13 281 -27 380 -23 166 -73 331 -120 395 -12 17 -25 42
-29 57 -4 14 -15 34 -26 44 -10 9 -19 28 -19 41 0 12 -16 40 -35 62 -19 21
-35 48 -35 60 0 15 -9 25 -28 32 -20 7 -32 21 -45 57 -25 72 -143 204 -209
235 -29 14 -66 40 -83 57 -16 17 -52 48 -80 68 -27 20 -65 49 -84 65 -39 33
-233 128 -313 152 -29 9 -64 21 -78 25 -14 5 -45 12 -70 16 -70 10 -76 12 -96
23 -53 29 -250 68 -409 81 -60 5 -137 18 -170 28 -65 21 -180 38 -155 23 8 -4
32 -11 53 -15 20 -4 37 -11 37 -16 0 -12 -53 -2 -110 20 -25 10 -75 21 -111
24 -36 4 -108 17 -160 31 -54 14 -120 24 -154 24 -45 -1 -54 -3 -35 -9z m945
-270 c3 -5 2 -10 -4 -10 -5 0 -13 5 -16 10 -3 6 -2 10 4 10 5 0 13 -4 16 -10z
m-689 -97 c-7 -7 -26 7 -26 19 0 6 6 6 15 -2 9 -7 13 -15 11 -17z m609 -30
c25 -37 34 -80 15 -68 -18 11 -59 105 -46 105 3 0 17 -17 31 -37z m111 -70 c8
-17 18 -34 24 -38 12 -7 14 -35 3 -35 -5 0 -24 27 -42 60 -19 33 -38 60 -41
60 -4 0 -12 12 -19 28 -12 26 -11 26 24 -8 21 -19 44 -49 51 -67z m-611 77 c3
-5 1 -10 -4 -10 -6 0 -11 5 -11 10 0 6 2 10 4 10 3 0 8 -4 11 -10z m145 -20
c6 -11 8 -20 6 -20 -3 0 -10 9 -16 20 -6 11 -8 20 -6 20 3 0 10 -9 16 -20z
m944 -10 c25 -10 46 -24 46 -30 0 -18 -38 -11 -67 14 -15 12 -35 26 -43 29
-12 4 -12 6 2 6 9 1 37 -8 62 -19z m-853 -7 c13 -16 12 -17 -3 -4 -10 7 -18
15 -18 17 0 8 8 3 21 -13z m67 -8 c-3 -3 -9 2 -12 12 -6 14 -5 15 5 6 7 -7 10
-15 7 -18z m-458 -30 c0 -5 -5 -3 -10 5 -5 8 -10 20 -10 25 0 6 5 3 10 -5 5
-8 10 -19 10 -25z m1091 18 c13 -15 12 -15 -8 -4 -24 12 -29 21 -14 21 5 0 15
-7 22 -17z m469 -18 c17 -20 -7 -20 -34 0 -19 15 -19 15 1 15 11 0 26 -7 33
-15z m-375 -45 c11 -18 -10 -10 -40 16 l-30 25 32 -15 c17 -9 35 -20 38 -26z
m270 -64 c79 -38 235 -146 235 -163 0 -3 -8 1 -17 9 -23 19 -82 42 -89 35 -3
-3 11 -17 33 -30 40 -26 102 -87 88 -87 -4 0 -42 23 -83 51 -42 29 -72 43 -68
34 7 -18 -2 -15 -51 21 -56 42 -48 26 18 -35 35 -33 81 -87 102 -120 37 -61
37 -62 10 -44 -15 9 -52 41 -81 70 -30 29 -55 53 -58 53 -2 0 -1 -8 2 -17 3
-10 -39 27 -93 82 -55 55 -124 122 -154 148 -30 27 -41 41 -24 31 17 -10 55
-31 85 -47 30 -16 63 -36 73 -44 9 -9 20 -14 22 -11 3 3 -16 25 -42 48 -26 24
-40 40 -30 37 24 -9 21 2 -8 25 -37 29 -31 44 8 19 17 -12 73 -41 122 -65z
m-746 9 c0 -5 -4 -3 -9 5 -5 8 -9 22 -9 30 0 16 17 -16 18 -35z m-1796 1 c-10
-14 -22 -26 -26 -26 -10 0 12 43 27 52 19 12 19 0 -1 -26z m916 5 c9 -6 10
-11 2 -15 -13 -8 -31 1 -31 15 0 11 11 11 29 0z m15 -52 c-2 -5 0 -18 6 -29 6
-11 7 -20 3 -20 -8 0 -33 47 -33 62 0 4 7 5 15 2 8 -4 12 -10 9 -15z m1624
-185 c12 -10 27 -20 32 -20 6 -1 15 -2 20 -3 6 0 10 -6 10 -12 0 -8 -4 -8 -14
0 -11 9 -15 9 -19 -1 -3 -9 -19 2 -46 30 -41 43 -56 68 -23 40 9 -8 27 -24 40
-34z"/>
<path d="M5181 7244 c13 -16 29 -19 29 -5 0 5 -9 11 -21 14 -16 4 -18 3 -8 -9z"/>
<path d="M2832 7665 c-62 -35 -102 -65 -102 -75 0 -14 31 1 81 39 26 20 55 41
65 48 36 23 -1 13 -44 -12z"/>
<path d="M2614 7468 c-43 -47 -84 -105 -84 -119 0 -19 44 27 89 92 44 65 42
77 -5 27z"/>
<path d="M4670 7344 c81 -87 80 -86 80 -76 0 19 -72 103 -103 118 -29 15 -26
10 23 -42z"/>
<path d="M5615 6668 c11 -6 28 -20 39 -29 20 -19 73 -35 83 -25 3 3 -7 10 -22
16 -15 6 -40 19 -55 30 -16 11 -36 20 -47 20 -17 -1 -17 -1 2 -12z"/>
<path d="M2430 5623 c0 -10 5 -58 11 -108 5 -49 12 -113 14 -142 12 -158 43
-167 36 -10 -6 139 -11 191 -22 224 -7 21 -12 41 -11 46 1 4 -5 7 -13 7 -8 0
-15 -8 -15 -17z"/>
<path d="M2767 5330 c-16 -5 -35 -14 -43 -21 -13 -10 -17 -10 -24 1 -7 11 -13
9 -33 -10 -13 -14 -31 -37 -41 -51 -15 -25 -15 -27 0 -33 11 -4 13 -10 7 -19
-6 -6 -13 -20 -16 -29 -5 -14 -1 -18 18 -18 17 0 23 4 19 14 -3 9 4 16 22 20
25 7 26 8 8 22 -18 14 -16 15 19 10 41 -5 51 8 12 18 -14 4 -25 10 -25 15 0
16 27 19 51 6 13 -8 35 -19 49 -26 14 -6 32 -15 41 -19 8 -4 36 -4 61 0 47 9
90 6 164 -10 50 -11 74 -5 74 20 0 25 57 33 90 13 l25 -16 -22 25 c-13 13 -23
32 -23 41 0 25 -32 28 -190 17 -179 -13 -200 -15 -200 -23 0 -4 2 -7 5 -7 3 0
14 -9 25 -20 11 -11 20 -22 20 -25 0 -9 -19 -5 -32 8 -8 6 -23 17 -33 23 -25
14 -21 43 8 66 24 20 12 22 -36 8z"/>
<path d="M4450 5236 c-13 -13 -13 -36 0 -36 5 0 7 -7 3 -16 -5 -14 -3 -15 16
-4 16 8 26 8 35 1 9 -7 19 -6 34 4 14 11 33 14 59 10 44 -7 115 6 120 22 6 16
-101 27 -127 13 -16 -9 -21 -8 -26 4 -7 17 -98 18 -114 2z"/>
<path d="M4399 5183 c-13 -17 -13 -17 6 -3 11 8 22 16 24 17 2 2 0 3 -6 3 -6
0 -17 -8 -24 -17z"/>
<path d="M3045 4969 c-33 -12 -67 -27 -75 -33 -8 -7 -43 -25 -77 -41 -35 -16
-63 -33 -63 -38 0 -5 22 -7 53 -3 31 4 65 2 81 -4 16 -6 32 -8 35 -4 3 4 0 9
-6 11 -27 10 -11 32 34 47 26 9 47 16 48 16 1 0 10 -20 19 -44 9 -25 24 -50
32 -57 8 -7 51 -14 94 -16 76 -4 81 -3 104 22 14 15 30 43 37 62 8 26 16 34
29 30 16 -4 17 -2 7 13 -19 32 -86 51 -192 56 -85 4 -109 1 -160 -17z m155
-44 c0 -8 -4 -15 -9 -15 -5 0 -3 -14 6 -30 23 -46 11 -55 -27 -21 -19 17 -41
31 -47 31 -7 0 -13 5 -13 10 0 6 14 10 30 10 20 0 30 5 30 15 0 8 7 15 15 15
8 0 15 -7 15 -15z m50 5 c0 -5 -7 -10 -15 -10 -8 0 -15 5 -15 10 0 6 7 10 15
10 8 0 15 -4 15 -10z m70 -22 c0 -25 -16 -37 -38 -31 -24 6 -30 28 -9 36 23
10 47 7 47 -5z m-55 -58 c3 -5 1 -10 -4 -10 -6 0 -11 5 -11 10 0 6 2 10 4 10
3 0 8 -4 11 -10z"/>
<path d="M2858 4959 c-10 -5 -23 -19 -29 -30 -10 -19 -9 -20 10 -9 12 6 21 14
21 19 0 4 10 13 23 19 13 6 16 11 7 11 -8 0 -23 -4 -32 -10z"/>
<path d="M4433 4953 c-24 -8 -43 -19 -43 -23 0 -14 18 -21 25 -10 9 15 25 2
19 -14 -3 -8 -1 -17 4 -20 6 -3 8 -15 5 -25 -8 -30 27 -79 61 -87 18 -4 32 -2
34 4 2 7 12 7 30 0 19 -7 40 -7 69 1 36 10 44 17 59 56 9 25 20 45 25 45 24 0
60 -22 56 -33 -4 -10 9 -14 54 -14 68 0 73 14 13 37 -21 9 -59 26 -84 40 -113
61 -233 77 -327 43z m83 -70 c-3 -8 2 -28 11 -44 13 -21 20 -26 30 -18 13 12
51 3 39 -8 -8 -9 -75 -13 -98 -7 -10 3 -17 9 -15 14 1 5 -7 16 -18 25 -15 12
-17 18 -6 22 7 3 20 14 29 24 17 20 36 15 28 -8z m54 13 c0 -11 -19 -15 -25
-6 -3 5 1 10 9 10 9 0 16 -2 16 -4z m68 -23 c-4 -20 -49 -25 -55 -6 -4 10 7
15 50 22 5 0 7 -7 5 -16z m42 -8 c0 -8 -7 -15 -15 -15 -16 0 -20 12 -8 23 11
12 23 8 23 -8z m-46 -41 c3 -8 2 -12 -4 -9 -6 3 -10 10 -10 16 0 14 7 11 14
-7z"/>
<path d="M4340 4910 c-14 -11 -20 -20 -15 -19 13 0 50 28 44 33 -2 3 -15 -4
-29 -14z"/>
<path d="M3452 4868 c7 -12 14 -25 15 -27 2 -2 9 2 18 9 15 13 19 4 18 -37 -1
-7 3 -10 8 -7 27 16 -3 65 -49 79 -22 6 -22 5 -10 -17z"/>
<path d="M4260 4839 c0 -5 5 -7 10 -4 6 3 10 8 10 11 0 2 -4 4 -10 4 -5 0 -10
-5 -10 -11z"/>
<path d="M4210 4830 c-19 -12 -20 -33 0 -42 31 -14 41 -8 38 19 -3 30 -16 37
-38 23z"/>
<path d="M3444 3989 c-8 -14 14 -29 43 -29 12 0 28 -3 37 -6 9 -3 16 -2 16 4
0 5 -18 17 -40 26 -48 19 -47 19 -56 5z"/>
<path d="M4048 3970 c-40 -12 -104 -53 -90 -58 7 -2 35 4 62 13 28 9 71 15 95
13 48 -3 61 13 26 32 -23 12 -54 12 -93 0z"/>
<path d="M2376 3658 c-13 -18 -13 -23 -2 -32 8 -6 16 -18 19 -26 3 -8 6 6 6
33 1 26 -1 47 -3 47 -3 0 -12 -10 -20 -22z"/>
<path d="M4514 3486 c-89 -32 -90 -33 -83 -60 4 -15 7 -45 6 -65 -2 -33 0 -37
18 -33 28 7 44 19 135 102 44 40 77 77 74 81 -9 16 -57 8 -150 -25z"/>
<path d="M3166 3481 c21 -16 64 -56 94 -90 33 -37 67 -65 85 -70 17 -4 29 -12
28 -17 -1 -5 9 -14 23 -21 32 -15 34 9 2 31 -15 11 -25 33 -32 77 l-12 62 -52
13 c-29 8 -66 21 -82 29 -16 8 -43 15 -61 15 l-32 0 39 -29z"/>
<path d="M3392 3439 c2 -6 7 -10 11 -10 4 1 16 1 28 1 11 0 17 5 14 10 -8 14
-58 13 -53 -1z"/>
<path d="M4342 3442 c-7 -5 -10 -16 -6 -26 6 -15 7 -15 20 1 22 30 15 43 -14
25z"/>
<path d="M3497 3433 c-12 -11 -8 -19 11 -21 98 -13 122 -13 148 1 27 14 25 15
-45 15 -39 1 -80 3 -90 7 -9 3 -20 2 -24 -2z"/>
<path d="M4190 3430 c-24 -8 -23 -8 8 -9 20 -1 31 3 27 9 -3 6 -7 10 -8 9 -1
-1 -13 -5 -27 -9z"/>
<path d="M4075 3410 c-3 -5 1 -10 10 -10 9 0 13 5 10 10 -3 6 -8 10 -10 10 -2
0 -7 -4 -10 -10z"/>
<path d="M4336 3318 c-3 -7 -7 -25 -10 -40 -5 -23 -3 -26 11 -21 10 4 28 16
40 28 l23 22 -26 11 c-31 15 -34 15 -38 0z"/>
<path d="M5776 3298 c-3 -7 -7 -85 -9 -173 -6 -178 -21 -267 -73 -424 -66
-200 -217 -418 -404 -586 -90 -81 -299 -216 -460 -298 -77 -39 -176 -99 -230
-141 -52 -39 -113 -83 -135 -96 -22 -13 -80 -55 -129 -92 -58 -44 -107 -74
-140 -83 -60 -17 -176 -21 -301 -10 -82 7 -94 11 -135 43 -51 40 -170 161
-170 173 0 5 -28 41 -63 81 -35 40 -103 123 -151 183 -49 61 -105 130 -125
154 -34 42 -131 183 -152 224 -10 18 -9 18 15 2 14 -10 26 -20 26 -24 0 -4 25
-25 55 -47 30 -21 58 -49 62 -60 12 -34 174 -166 250 -203 37 -18 84 -42 104
-52 77 -38 292 -62 429 -48 71 7 193 17 223 19 5 0 6 4 3 9 -4 5 24 7 63 4 74
-5 164 17 238 57 21 11 54 27 73 35 49 21 166 97 222 145 26 22 52 40 57 40 6
0 11 4 11 9 0 6 36 38 80 72 44 34 80 64 80 68 0 3 24 32 52 65 60 68 86 126
62 139 -8 4 -23 17 -33 28 -18 19 -48 18 -62 -4 -4 -6 -23 -15 -43 -22 -32
-11 -38 -11 -45 4 -5 9 -6 22 -4 29 6 14 33 16 33 2 0 -5 7 -10 16 -10 11 0
14 5 10 16 -3 9 -6 22 -6 30 0 8 -7 14 -15 14 -12 0 -13 4 -5 19 5 11 7 27 3
36 -5 14 -9 11 -19 -14 -16 -37 -30 -40 -38 -6 -6 24 -26 36 -26 15 0 -5 -7
-7 -17 -3 -14 5 -15 1 -10 -35 3 -24 1 -40 -4 -36 -8 5 -13 -9 -10 -28 0 -4
-11 -3 -26 3 l-28 10 23 -24 c14 -15 19 -27 13 -31 -5 -4 -15 3 -21 14 -6 11
-16 20 -22 20 -9 0 -9 -3 0 -12 21 -21 14 -37 -15 -35 -26 2 -28 -1 -26 -31 1
-40 -20 -39 -25 1 -4 35 -32 36 -32 2 0 -15 7 -40 16 -57 11 -22 13 -33 5 -41
-8 -8 -11 -7 -11 5 0 16 -28 33 -39 23 -3 -3 0 -15 7 -25 13 -21 6 -25 -17
-11 -9 6 -11 20 -6 50 8 46 0 54 -15 16 -9 -22 -12 -24 -30 -13 -11 7 -20 16
-20 20 0 5 -4 8 -10 8 -5 0 -10 -14 -10 -31 0 -16 -4 -28 -9 -24 -5 3 -13 -4
-16 -16 -4 -12 -12 -18 -21 -15 -8 3 -14 -1 -14 -10 0 -12 -6 -15 -21 -11 -17
4 -19 3 -10 -6 6 -6 11 -17 11 -25 0 -12 -3 -12 -15 -2 -12 10 -15 9 -15 -6
-1 -18 -1 -18 -15 0 -15 19 -15 19 -15 -2 0 -15 -5 -20 -15 -16 -9 4 -15 0
-15 -8 0 -8 -9 -32 -19 -54 l-20 -39 -10 25 -10 25 -7 -23 c-6 -21 -7 -21 -20
-5 -13 17 -13 17 -14 0 0 -14 -7 -17 -35 -14 -35 4 -35 4 -35 -34 0 -29 -4
-37 -14 -33 -8 3 -17 1 -20 -5 -4 -6 -13 -8 -22 -4 -8 3 -23 -4 -33 -16 -20
-23 -41 -28 -41 -8 0 8 -4 7 -10 -3 -5 -8 -10 -11 -10 -6 0 5 -7 3 -15 -4 -12
-10 -15 -10 -15 4 0 20 -16 21 -23 2 -4 -9 -14 -12 -25 -9 -15 3 -22 -2 -30
-24 -10 -27 -11 -27 -17 -6 -7 23 -35 21 -35 -3 0 -8 -4 -14 -10 -14 -5 0 -10
7 -10 15 0 26 -14 16 -32 -23 l-18 -37 4 43 c3 35 1 42 -12 40 -13 -2 -16 3
-14 20 l4 24 -23 -23 c-20 -20 -23 -21 -28 -6 -6 15 -9 15 -39 -3 -37 -23 -52
-19 -52 13 -1 21 -2 21 -25 -5 -28 -33 -35 -35 -35 -9 0 10 -6 21 -14 24 -10
4 -12 0 -9 -14 3 -10 1 -19 -5 -19 -5 0 -12 10 -16 22 -5 22 -6 22 -20 3 -14
-17 -17 -18 -26 -5 -7 11 -10 4 -10 -30 l-1 -45 -14 40 c-8 22 -19 41 -24 43
-5 2 -7 19 -5 38 4 35 4 35 -18 20 -30 -21 -35 -20 -44 7 -3 12 -13 30 -22 39
-12 15 -12 20 -2 33 7 9 10 18 6 22 -3 4 -12 -2 -20 -12 -16 -23 -51 -13 -42
11 5 14 4 15 -9 4 -21 -18 -28 -8 -15 24 12 34 13 46 1 46 -5 0 -13 -10 -17
-22 -4 -13 -12 -31 -19 -41 -11 -15 -12 -11 -7 30 l5 48 -22 -19 c-18 -16 -21
-17 -21 -3 0 9 5 19 10 22 7 4 7 13 0 24 -6 12 -5 22 2 29 9 9 9 12 1 12 -7 0
-15 -4 -18 -10 -3 -5 -13 -10 -20 -10 -11 0 -12 6 -5 26 14 36 13 51 -2 36
-16 -16 -29 -15 -22 2 3 7 -2 16 -12 20 -13 5 -14 9 -3 22 10 13 10 17 -2 24
-7 5 -23 7 -34 4 -24 -6 -55 39 -55 78 0 32 -10 41 -28 25 -13 -10 -14 -8 -7
13 4 14 10 31 13 38 4 12 1 12 -16 1 -12 -7 -25 -10 -29 -6 -7 7 8 21 32 30 6
3 6 8 2 13 -4 4 -17 3 -27 -4 -26 -16 -33 -15 -27 2 3 8 -1 20 -9 27 -11 9
-18 8 -34 -6 -11 -10 -23 -15 -27 -12 -3 4 6 18 20 31 31 28 38 57 10 35 -10
-8 -24 -20 -31 -26 -16 -15 -32 -17 -32 -4 0 5 -9 11 -20 14 -11 3 -20 13 -20
22 0 13 -6 16 -26 12 -23 -4 -25 -2 -21 19 2 13 -1 25 -7 27 -5 2 -11 17 -12
33 -3 41 -3 41 -14 24 -8 -13 -10 -13 -10 1 0 9 -6 22 -14 28 -7 6 -11 22 -8
36 2 15 0 25 -7 25 -6 0 -11 -7 -11 -15 0 -28 -20 -15 -37 23 -23 49 -23 49
-34 32 -7 -13 -10 -13 -18 -1 -5 7 -14 10 -20 7 -7 -5 -21 13 -37 48 -14 31
-31 56 -37 56 -7 0 -19 15 -28 32 -20 42 -31 44 -49 5 -17 -36 -53 -50 -157
-61 -66 -7 -116 -22 -179 -54 -61 -31 -124 -49 -205 -61 -41 -6 -138 -30 -215
-55 -76 -24 -182 -54 -234 -66 -96 -22 -330 -95 -495 -154 -90 -33 -119 -42
-227 -72 l-58 -15 0 -1305 0 -1304 3240 0 3240 0 -2 1121 -3 1121 -145 76
c-214 111 -366 187 -467 230 -49 22 -129 66 -177 98 -190 129 -344 225 -406
255 -36 18 -75 41 -88 53 -28 25 -58 89 -83 179 -31 109 -82 200 -93 165z
m-2856 -568 c0 -5 -4 -10 -10 -10 -5 0 -10 5 -10 10 0 6 5 10 10 10 6 0 10 -4
10 -10z m1990 -295 c0 -8 -4 -15 -10 -15 -5 0 -10 7 -10 15 0 8 5 15 10 15 6
0 10 -7 10 -15z"/>
<path d="M2500 3276 c0 -9 5 -16 10 -16 6 0 10 4 10 9 0 6 -4 13 -10 16 -5 3
-10 -1 -10 -9z"/>
<path d="M4200 3260 c0 -10 -3 -26 -6 -35 -5 -13 -2 -15 22 -9 40 9 40 11 11
38 -24 23 -27 23 -27 6z"/>
<path d="M3496 3243 c-4 -9 -1 -20 6 -25 21 -13 25 -9 20 17 -5 29 -17 32 -26
8z"/>
<path d="M2510 3236 c0 -9 5 -16 10 -16 6 0 10 4 10 9 0 6 -4 13 -10 16 -5 3
-10 -1 -10 -9z"/>
<path d="M4040 3186 c0 -9 5 -16 10 -16 6 0 10 4 10 9 0 6 -4 13 -10 16 -5 3
-10 -1 -10 -9z"/>
<path d="M3651 3174 c0 -11 3 -14 6 -6 3 7 2 16 -1 19 -3 4 -6 -2 -5 -13z"/>
<path d="M3840 3150 c0 -5 5 -10 10 -10 6 0 10 5 10 10 0 6 -4 10 -10 10 -5 0
-10 -4 -10 -10z"/>
<path d="M5493 3095 c-14 -15 -17 -35 -7 -35 8 0 33 32 34 43 0 11 -14 8 -27
-8z"/>
<path d="M5450 3051 c0 -6 5 -13 10 -16 6 -3 10 1 10 9 0 9 -4 16 -10 16 -5 0
-10 -4 -10 -9z"/>
<path d="M5142 2835 c0 -16 2 -22 5 -12 2 9 2 23 0 30 -3 6 -5 -1 -5 -18z"/>
<path d="M5325 2803 c3 -12 1 -24 -4 -27 -5 -4 -7 -21 -4 -40 3 -21 1 -36 -7
-41 -8 -5 -11 -4 -7 1 3 6 -12 11 -33 11 -22 1 -42 -3 -46 -9 -8 -12 14 -28
31 -22 6 3 19 -4 28 -14 21 -23 12 -56 -14 -49 -13 3 -22 -5 -34 -29 -11 -23
-20 -31 -31 -27 -9 3 -20 0 -24 -8 -23 -36 30 -30 55 7 8 13 22 24 29 24 7 0
19 7 26 15 7 8 16 13 20 10 14 -9 23 16 11 28 -21 21 -13 47 14 47 18 0 31 10
45 32 l20 33 -22 11 c-12 7 -28 10 -35 7 -9 -3 -11 0 -7 10 3 9 1 24 -6 34
-10 16 -10 16 -5 -4z"/>
<path d="M4960 2760 c0 -11 2 -20 5 -20 2 0 9 9 15 20 9 16 8 20 -5 20 -8 0
-15 -9 -15 -20z"/>
<path d="M5137 2756 c-4 -10 -1 -13 8 -9 8 3 12 9 9 14 -7 12 -11 11 -17 -5z"/>
<path d="M5183 2734 c-17 -18 -16 -31 3 -38 22 -9 25 -5 16 26 -6 21 -9 23
-19 12z"/>
<path d="M5280 2736 c0 -9 5 -16 10 -16 6 0 10 4 10 9 0 6 -4 13 -10 16 -5 3
-10 -1 -10 -9z"/>
<path d="M5104 2714 c3 -9 6 -19 6 -22 0 -4 9 -13 19 -19 16 -10 20 -9 24 8 4
16 3 18 -9 8 -11 -9 -16 -6 -24 15 -5 14 -12 26 -16 26 -3 0 -3 -7 0 -16z"/>
<path d="M4910 2699 c0 -5 5 -7 10 -4 6 3 10 8 10 11 0 2 -4 4 -10 4 -5 0 -10
-5 -10 -11z"/>
<path d="M4920 2651 c0 -5 5 -13 10 -16 6 -3 10 -2 10 4 0 5 -4 13 -10 16 -5
3 -10 2 -10 -4z"/>
<path d="M5112 2638 c-8 -10 -6 -20 8 -38 16 -22 20 -23 25 -8 15 38 -10 73
-33 46z"/>
<path d="M5080 2583 c0 -26 4 -33 20 -33 25 0 25 8 0 40 l-20 25 0 -32z"/>
<path d="M4830 2500 c0 -11 4 -20 9 -20 5 0 7 9 4 20 -3 11 -7 20 -9 20 -2 0
-4 -9 -4 -20z"/>
<path d="M5212 2509 c2 -6 8 -10 13 -10 5 0 11 4 13 10 2 6 -4 11 -13 11 -9 0
-15 -5 -13 -11z"/>
</g>
</svg>
